<svg xmlns="http://www.w3.org/2000/svg" width="1002" height="440" viewBox="0 0 1002 440" font-family="ui-monospace,SFMono-Regular,Menlo,Consolas,monospace">
<rect width="100%" height="100%" rx="15" fill="#f6f8fa"/>
<g font-size="7" fill="#24292f">
<text x="200.8 205.0 209.2 213.4 217.6 221.8 226.0 230.2 234.4 238.6 242.8 247.0 251.2 255.4" y="28.0">++#%%%@@@%%#*+</text>
<text x="184.0 188.2 192.4 196.6 200.8 205.0 209.2 213.4 217.6 221.8 226.0 230.2 234.4 238.6 242.8 247.0 251.2 255.4 259.6 263.8 268.0 272.2 276.4 280.6" y="36.4">+#@@@@@@@@@@@@@@@@@@@#*=</text>
<text x="171.4 175.6 179.8 184.0 188.2 192.4 196.6 200.8 205.0 209.2 213.4 217.6 221.8 226.0 230.2 234.4 238.6 242.8 247.0 251.2 255.4 259.6 263.8 268.0 272.2 276.4 280.6 284.8" y="44.8">,#@@@@@@@@@@@@@@@@@@@@@@@@#+</text>
<text x="167.2 171.4 175.6 179.8 184.0 188.2 192.4 196.6 200.8 205.0 209.2 213.4 217.6 221.8 226.0 230.2 234.4 238.6 242.8 247.0 251.2 255.4 259.6 263.8" y="53.2">#@@@@@@@@@@@@@@@@@@@@%#-</text>
<text x="163.0 167.2 171.4 175.6 179.8 184.0 188.2 192.4 196.6 200.8 205.0 209.2 213.4 217.6 221.8 226.0 230.2 234.4 238.6 242.8 247.0 251.2 255.4 259.6 263.8 268.0" y="61.6">#@@@@@@@@@@@@@@@@%%##*++=:</text>
<text x="163.0 167.2 171.4 175.6 179.8 184.0 188.2 192.4 196.6 200.8 205.0 209.2 213.4 217.6 221.8 226.0 230.2 234.4 238.6 242.8 247.0 251.2 255.4 259.6 263.8 268.0 272.2 276.4 280.6" y="70.0">@@@@@@@@@@@@@@@@%%#******=-::</text>
<text x="158.8 163.0 167.2 171.4 175.6 179.8 184.0 188.2 192.4 196.6 200.8 205.0 209.2 213.4 217.6 221.8 226.0 230.2 234.4 238.6 242.8 247.0 251.2 255.4 259.6 263.8 268.0 272.2 276.4 280.6 284.8" y="78.4">#@@@@@@@@@@@@@@@@@@%####**+=-=-</text>
<text x="158.8 163.0 167.2 171.4 175.6 179.8 184.0 188.2 192.4 196.6 200.8 205.0 209.2 213.4 217.6 221.8 226.0 230.2 234.4 238.6 242.8 247.0 251.2 255.4 259.6 263.8 268.0 272.2 276.4 280.6 284.8" y="86.8">%@@@@@@@@@@@@@@@@@%%%#%#**+=++:</text>
<text x="158.8 163.0 167.2 171.4 175.6 179.8 184.0 188.2 192.4 196.6 200.8 205.0 209.2 213.4 217.6 221.8 226.0 230.2 234.4 238.6 242.8 247.0 251.2 255.4 259.6 263.8 268.0 272.2 276.4 305.8 310.0" y="95.2">%@@@@@@@@@@@@@@%######%#%%%@#+#</text>
<text x="158.8 163.0 167.2 171.4 175.6 179.8 184.0 188.2 192.4 196.6 200.8 205.0 209.2 213.4 217.6 221.8 226.0 230.2 234.4 238.6 242.8 247.0 251.2 255.4 259.6 263.8 268.0 272.2 276.4 280.6 293.2 297.4 301.6 305.8 310.0 314.2 318.4 322.6 326.8 331.0" y="103.6">%@@@@@@@@@@@@@@%#####%%%@@@#+=-+;@#;=#*=</text>
<text x="158.8 163.0 167.2 171.4 175.6 179.8 184.0 188.2 192.4 196.6 200.8 205.0 209.2 213.4 217.6 221.8 226.0 230.2 234.4 238.6 242.8 247.0 251.2 255.4 259.6 263.8 268.0 272.2 276.4 280.6 284.8 289.0 293.2 297.4 301.6 305.8 314.2 318.4 322.6 326.8 331.0" y="112.0">%@@@@@@@@@@@@@@%%%%%%%%@@@@@@@#+*%#:%@@#,</text>
<text x="154.6 158.8 163.0 167.2 171.4 175.6 179.8 184.0 188.2 192.4 196.6 200.8 205.0 209.2 213.4 217.6 221.8 226.0 230.2 234.4 238.6 242.8 247.0 251.2 255.4 259.6 263.8 268.0 272.2 276.4 280.6 284.8 289.0 293.2 297.4 301.6 305.8 310.0 318.4 322.6 326.8" y="120.4">%@@@@%###%@@@@@@%##%%%%%%%@@@@@@@@@@@+=#;</text>
<text x="150.4 154.6 158.8 163.0 167.2 171.4 175.6 179.8 184.0 188.2 192.4 196.6 200.8 205.0 209.2 213.4 217.6 221.8 226.0 230.2 234.4 238.6 242.8 247.0 251.2 255.4 259.6 263.8 268.0 272.2 276.4 280.6 284.8 289.0 293.2 297.4 301.6 305.8 310.0 314.2" y="128.8">*@@@@@*###%%%%@@@@%#####%#%%%%%%%@@@@@@#</text>
<text x="150.4 154.6 158.8 163.0 167.2 171.4 175.6 179.8 184.0 188.2 192.4 196.6 200.8 205.0 209.2 213.4 217.6 221.8 226.0 230.2 234.4 238.6 242.8 247.0 251.2 255.4 259.6 263.8 268.0 272.2 276.4 280.6 289.0 293.2 297.4 301.6 305.8 310.0 318.4" y="137.2">-@@@@@%###@@%##%@@%%%%%#%#####*-#@@@@#,</text>
<text x="158.8 163.0 167.2 171.4 175.6 179.8 184.0 188.2 192.4 196.6 200.8 205.0 209.2 213.4 217.6 221.8 226.0 230.2 234.4 238.6 242.8 247.0 251.2 255.4 259.6 263.8 268.0 272.2 276.4 293.2 297.4 301.6 305.8" y="145.6">@@@@@@%#%%%%%#%@@%%%%%%####*=*#%-</text>
<text x="167.2 171.4 175.6 179.8 184.0 188.2 192.4 196.6 200.8 205.0 209.2 213.4 217.6 221.8 226.0 230.2 234.4 238.6 242.8 247.0 251.2 255.4 259.6 263.8 268.0 272.2 276.4 280.6 289.0 293.2 297.4 301.6" y="154.0">%%%@@@##%%%%%%@@%%%%%###%#*-=%#+</text>
<text x="184.0 188.2 192.4 196.6 200.8 205.0 209.2 213.4 217.6 221.8 226.0 230.2 234.4 238.6 242.8 247.0 251.2 255.4 259.6 263.8 268.0 272.2 276.4 280.6 289.0 293.2 297.4 301.6" y="162.4">@@#%%%%%%%%%%%%%%%##%%%+#@@*</text>
<text x="188.2 192.4 196.6 200.8 205.0 209.2 213.4 217.6 221.8 226.0 230.2 234.4 238.6 242.8 247.0 251.2 255.4 259.6 263.8 268.0 272.2 276.4 284.8 289.0 293.2 297.4" y="170.8">@##%%%%%%%%%%%%%%%%%#*:#*-</text>
<text x="188.2 192.4 196.6 200.8 205.0 209.2 213.4 217.6 221.8 226.0 230.2 234.4 238.6 242.8 247.0 251.2 255.4 259.6 263.8 268.0 272.2 276.4 280.6 284.8 289.0 293.2 297.4" y="179.2">###%%%%%%%%%%%%%%%%%%####*=</text>
<text x="188.2 192.4 196.6 200.8 205.0 209.2 213.4 217.6 221.8 226.0 230.2 234.4 238.6 242.8 247.0 251.2 255.4 259.6 263.8 268.0 272.2 276.4 280.6 284.8 289.0 293.2 297.4 301.6" y="187.6">+##%%%%%%%%@@@@@@@@@@@@@@@@+</text>
<text x="163.0 167.2 171.4 175.6 179.8 184.0 188.2 192.4 196.6 200.8 205.0 209.2 213.4 217.6 221.8 226.0 230.2 234.4 238.6 242.8 247.0 251.2 255.4 259.6 263.8 268.0 272.2 276.4 280.6 284.8 289.0 293.2 297.4" y="196.0">*##==*##%%%%%%%%%@@@@@@@@@%@@@@@@</text>
<text x="137.8 142.0 146.2 150.4 154.6 158.8 163.0 167.2 171.4 175.6 179.8 184.0 188.2 192.4 196.6 200.8 205.0 209.2 213.4 217.6 221.8 226.0 230.2 234.4 238.6 242.8 247.0 251.2 255.4 280.6 289.0 301.6 305.8 310.0" y="204.4">++*#%@@@@@**##%%%%%%%%%%@@@@*#-.=*</text>
<text x="112.6 116.8 121.0 125.2 129.4 133.6 137.8 142.0 146.2 150.4 154.6 158.8 163.0 167.2 171.4 175.6 179.8 184.0 188.2 192.4 196.6 200.8 205.0 209.2 213.4 217.6 221.8 226.0 230.2 234.4 238.6 242.8 247.0 251.2 276.4 280.6 289.0 293.2 301.6 305.8 310.0 322.6 331.0" y="212.8">+***#%@@@@@@@@@@@#*##%%%%%%#%%@@@@*#+*=;.,.</text>
<text x="95.8 100.0 104.2 108.4 112.6 116.8 121.0 125.2 129.4 133.6 137.8 142.0 146.2 150.4 154.6 158.8 163.0 167.2 171.4 175.6 179.8 184.0 188.2 192.4 196.6 200.8 205.0 209.2 213.4 217.6 221.8 226.0 230.2 234.4 238.6 242.8 247.0 251.2 272.2 276.4 284.8 289.0 293.2 297.4 301.6 305.8 310.0 314.2 318.4 322.6 326.8 331.0" y="221.2">--=*%%@@@@@@@@@@@@@@@@@%%####%###%@%*.=%,;%++=*%@@#,</text>
<text x="87.4 91.6 95.8 100.0 104.2 108.4 112.6 116.8 121.0 125.2 129.4 133.6 137.8 142.0 146.2 150.4 154.6 158.8 163.0 167.2 171.4 175.6 179.8 184.0 188.2 192.4 196.6 200.8 205.0 209.2 213.4 217.6 221.8 226.0 230.2 234.4 238.6 242.8 263.8 268.0 272.2 276.4 284.8 289.0 293.2 297.4 301.6 305.8 310.0 314.2 318.4 322.6 326.8 331.0 335.2 339.4 343.6 347.8 352.0" y="229.6">=+%@@@@@@@@@@@@@@@@@@@@@@@@@@%%####%#:+#*,*=%#;;+#%@@%*+,:=</text>
<text x="74.8 79.0 83.2 87.4 91.6 95.8 100.0 104.2 108.4 112.6 116.8 121.0 125.2 129.4 133.6 137.8 142.0 146.2 150.4 154.6 158.8 163.0 167.2 171.4 175.6 179.8 184.0 188.2 192.4 196.6 200.8 205.0 209.2 213.4 217.6 221.8 226.0 230.2 234.4 238.6 242.8 247.0 251.2 255.4 259.6 263.8 268.0 272.2 276.4 280.6 284.8 289.0 293.2 297.4 305.8 310.0 314.2 318.4 322.6 326.8 331.0 335.2 339.4 343.6 347.8 352.0 356.2" y="238.0">*#@@@@@@@@@@@@@@@@@@@@@@@@@@@@@@@@%%###*+*###*===@**#*;+*%@@@%%*%@:</text>
<text x="66.4 70.6 74.8 79.0 83.2 87.4 91.6 95.8 100.0 104.2 108.4 112.6 116.8 121.0 125.2 129.4 133.6 137.8 142.0 146.2 150.4 154.6 158.8 163.0 167.2 171.4 175.6 179.8 184.0 188.2 192.4 196.6 200.8 205.0 209.2 213.4 217.6 221.8 226.0 230.2 234.4 238.6 242.8 247.0 251.2 255.4 259.6 263.8 268.0 272.2 276.4 280.6 284.8 289.0 293.2 297.4 301.6 305.8 310.0 314.2 318.4 322.6 326.8 331.0 335.2 339.4 343.6 347.8 352.0 356.2 360.4" y="246.4">*%@@@@@@%%@%%%%@@@@@@@@@@@@@@@@@@@@@@@@@@@@#**#%%*@@+%*+;-++#@#%%@@@@#;</text>
<text x="62.2 66.4 70.6 74.8 79.0 83.2 87.4 91.6 95.8 100.0 104.2 108.4 112.6 116.8 121.0 125.2 129.4 133.6 137.8 142.0 146.2 150.4 154.6 158.8 163.0 167.2 171.4 175.6 179.8 184.0 188.2 192.4 196.6 200.8 205.0 209.2 213.4 217.6 221.8 226.0 230.2 234.4 238.6 242.8 247.0 251.2 255.4 259.6 263.8 268.0 272.2 276.4 280.6 284.8 289.0 293.2 297.4 301.6 305.8 310.0 314.2 318.4 322.6 326.8 331.0 335.2 339.4 343.6 347.8 352.0 356.2 360.4 364.6" y="254.8">*@@@@@@@@%=@*;*+#@@@@@@@@@@@%@@%@@@@%@@@@@@@@@@@@-@@=#@+=#-+**%##*%@@@@=;</text>
<text x="53.8 58.0 62.2 66.4 70.6 74.8 79.0 83.2 87.4 91.6 95.8 100.0 104.2 108.4 112.6 121.0 125.2 129.4 133.6 137.8 142.0 146.2 150.4 154.6 158.8 163.0 167.2 171.4 175.6 179.8 184.0 188.2 192.4 196.6 200.8 205.0 209.2 213.4 217.6 221.8 226.0 230.2 234.4 238.6 242.8 247.0 251.2 255.4 259.6 263.8 268.0 272.2 276.4 280.6 284.8 289.0 293.2 297.4 301.6 305.8 310.0 314.2 318.4 322.6 326.8 331.0 335.2 339.4 343.6 347.8 352.0 356.2 360.4 364.6" y="263.2">+%@@@@@@@%@@#@@;%%*%;*#%%@@%%**@#-#%%=+++@@@@@@@*-%@=+@%=+%-+**+#*+,@@@@;+</text>
<text x="49.6 53.8 58.0 62.2 66.4 70.6 74.8 79.0 83.2 87.4 91.6 95.8 100.0 104.2 108.4 112.6 116.8 125.2 129.4 133.6 137.8 142.0 150.4 154.6 158.8 163.0 167.2 171.4 175.6 179.8 184.0 188.2 192.4 196.6 200.8 205.0 209.2 213.4 217.6 221.8 230.2 234.4 238.6 242.8 247.0 251.2 255.4 259.6 263.8 268.0 272.2 276.4 280.6 284.8 289.0 293.2 297.4 301.6 305.8 310.0 314.2 318.4 322.6 326.8 331.0 335.2 343.6 347.8 352.0 356.2 360.4 364.6 368.8 373.0 381.4" y="271.6">+%@@@@@@@@%@@@@@*@@#@=*#%%%@%%-*@%+*##**#@@@@@%;%%-=%%%%*#+-*++***=@@@+-;,:</text>
<text x="45.4 49.6 53.8 58.0 62.2 66.4 70.6 74.8 79.0 83.2 87.4 91.6 95.8 100.0 104.2 108.4 112.6 116.8 125.2 129.4 133.6 137.8 142.0 146.2 150.4 154.6 158.8 163.0 167.2 171.4 175.6 179.8 184.0 188.2 192.4 196.6 200.8 205.0 209.2 213.4 217.6 221.8 226.0 230.2 234.4 238.6 242.8 247.0 251.2 255.4 259.6 263.8 268.0 272.2 276.4 280.6 284.8 289.0 293.2 297.4 301.6 305.8 310.0 314.2 318.4 322.6 326.8 331.0 335.2 339.4 347.8 352.0 356.2 360.4 364.6 368.8 373.0 381.4 385.6" y="280.0">*%@@@@@@@@@@%@@@@@@@@@%:%%#%%%@@#;#%%#*##%,:%@@@@#%@*-#%@@@@#*+#=+***;-@@%-=;=:</text>
<text x="41.2 45.4 49.6 53.8 58.0 62.2 66.4 70.6 74.8 79.0 83.2 87.4 91.6 95.8 100.0 104.2 108.4 112.6 116.8 121.0 125.2 129.4 133.6 137.8 142.0 146.2 150.4 154.6 158.8 163.0 167.2 171.4 175.6 179.8 184.0 188.2 192.4 196.6 200.8 205.0 209.2 213.4 217.6 221.8 226.0 234.4 238.6 242.8 247.0 251.2 255.4 259.6 263.8 268.0 272.2 276.4 280.6 284.8 289.0 293.2 297.4 301.6 305.8 310.0 314.2 318.4 322.6 326.8 331.0 335.2 339.4 352.0 356.2 360.4 364.6 368.8 381.4 385.6" y="288.4">+@@@@@@@@@@@@%@@@@@=@@@@@=%@%%%#%%@-*#*#***@**@@@%@@%#*%%@@@@#%+%*++****@@#*+%</text>
<text x="41.2 45.4 49.6 53.8 58.0 62.2 66.4 70.6 74.8 79.0 83.2 87.4 91.6 95.8 100.0 104.2 108.4 112.6 116.8 121.0 125.2 129.4 133.6 137.8 142.0 146.2 150.4 154.6 158.8 163.0 167.2 171.4 175.6 179.8 184.0 188.2 192.4 196.6 200.8 205.0 209.2 213.4 217.6 221.8 226.0 234.4 238.6 242.8 247.0 251.2 255.4 259.6 263.8 268.0 272.2 276.4 280.6 284.8 289.0 293.2 297.4 301.6 305.8 310.0 314.2 318.4 322.6 326.8 331.0 335.2 339.4 343.6 352.0 356.2 360.4 364.6 368.8 373.0 377.2 381.4 385.6 389.8 394.0" y="296.8">%@@@@@@%@@@@@%%@@@@%@@@@@%%@@%%%%%@#=#+*#**#@=%@@@@@%@%%%@@@@##*##**++#:,#-@+.,+@+.</text>
<text x="37.0 41.2 45.4 49.6 53.8 58.0 62.2 66.4 70.6 74.8 79.0 83.2 87.4 91.6 95.8 100.0 104.2 108.4 112.6 116.8 121.0 125.2 129.4 133.6 137.8 142.0 146.2 150.4 154.6 158.8 163.0 167.2 171.4 175.6 179.8 184.0 188.2 192.4 196.6 200.8 205.0 209.2 213.4 217.6 221.8 226.0 230.2 234.4 238.6 242.8 247.0 251.2 255.4 259.6 263.8 268.0 272.2 276.4 280.6 284.8 289.0 293.2 297.4 301.6 305.8 310.0 314.2 318.4 322.6 326.8 331.0 335.2 339.4 343.6 352.0 356.2 364.6 368.8 377.2 381.4 385.6 389.8" y="305.2">#@@@@@@@@%@@@@%%@@@@%@@@@@@@@@@%%%%%@=*+*+**+@;;@@@@@@@@@@%%@@@%*%**#*++#+;@@*=%@%</text>
<text x="32.8 37.0 41.2 45.4 49.6 53.8 58.0 62.2 66.4 70.6 74.8 79.0 83.2 87.4 91.6 95.8 100.0 104.2 108.4 112.6 116.8 121.0 125.2 129.4 133.6 137.8 142.0 146.2 150.4 154.6 158.8 163.0 167.2 171.4 175.6 179.8 184.0 188.2 192.4 196.6 200.8 205.0 209.2 213.4 217.6 221.8 226.0 230.2 234.4 238.6 242.8 247.0 251.2 255.4 259.6 263.8 268.0 272.2 276.4 280.6 284.8 289.0 293.2 297.4 301.6 305.8 310.0 314.2 318.4 322.6 326.8 331.0 335.2 339.4 343.6 352.0 356.2 360.4 364.6 368.8 377.2 381.4 385.6 389.8" y="313.6">+@@@@@@@@@@%@@@@%@@@@@@@@@@@@@@@@%@@%@+**+++*-#**@@@@@@%@@@%%@@@%#@+*#*++*++@;@*@@@#</text>
<text x="32.8 37.0 41.2 45.4 49.6 53.8 58.0 62.2 66.4 70.6 74.8 79.0 83.2 87.4 91.6 95.8 100.0 104.2 108.4 112.6 116.8 121.0 125.2 129.4 133.6 137.8 142.0 146.2 150.4 154.6 158.8 163.0 167.2 171.4 175.6 179.8 184.0 188.2 192.4 196.6 200.8 205.0 209.2 213.4 217.6 221.8 226.0 230.2 234.4 238.6 242.8 247.0 251.2 255.4 259.6 263.8 268.0 272.2 276.4 280.6 284.8 289.0 293.2 297.4 301.6 305.8 310.0 314.2 318.4 322.6 326.8 331.0 335.2 339.4 343.6 352.0 356.2 360.4 364.6 368.8 373.0 377.2 381.4 385.6 389.8 394.0" y="322.0">%@@@@@@@@@@%%@@@%@@@@@@@@@@@@@@@@@@@@@*=#*++*-+@%@@@@@@%@@%%@@@@%%@**#**=++*@=*=;*@@@*</text>
</g>
<text x="449" y="30" font-size="14" fill="#24292f" xml:space="preserve">
<tspan x="449" y="30" fill="#953800">gael@amoros</tspan><tspan fill="#a2a9b1"> ——————————————————————————————————————————————————</tspan>
<tspan x="449" y="50" fill="#a2a9b1">. </tspan><tspan fill="#953800">OS</tspan>:<tspan fill="#a2a9b1"> .................................................. </tspan><tspan fill="#0a3069">macOS</tspan>
<tspan x="449" y="70" fill="#a2a9b1">. </tspan><tspan fill="#953800">Coding.Since</tspan>:<tspan fill="#a2a9b1"> ................................. </tspan><tspan fill="#0a3069">2022 (4 ans)</tspan>
<tspan x="449" y="90" fill="#a2a9b1">. </tspan><tspan fill="#953800">Role</tspan>:<tspan fill="#a2a9b1"> .............................. </tspan><tspan fill="#0a3069">Fondateur &amp; développeur</tspan>
<tspan x="449" y="110" fill="#a2a9b1">. </tspan><tspan fill="#953800">Company</tspan>:<tspan fill="#a2a9b1"> ........... </tspan><tspan fill="#0a3069">Chauffleet (SaaS gestion de flotte VTC)</tspan>
<tspan x="449" y="130" fill="#a2a9b1">. </tspan><tspan fill="#953800">Studies</tspan>:<tspan fill="#a2a9b1"> ......................... </tspan><tspan fill="#0a3069">Avignon Université (CERI)</tspan>
<tspan x="449" y="150" fill="#a2a9b1">. </tspan><tspan fill="#953800">IDE</tspan>:<tspan fill="#a2a9b1"> .................................. </tspan><tspan fill="#0a3069">VS Code, Claude Code</tspan>
<tspan x="449" y="190" fill="#a2a9b1">. </tspan><tspan fill="#953800">Languages.Programming</tspan>:<tspan fill="#a2a9b1"> .......... </tspan><tspan fill="#0a3069">TypeScript, Rust, SQL, C++</tspan>
<tspan x="449" y="210" fill="#a2a9b1">. </tspan><tspan fill="#953800">Languages.Computer</tspan>:<tspan fill="#a2a9b1"> .................. </tspan><tspan fill="#0a3069">HTML, CSS, JSON, YAML</tspan>
<tspan x="449" y="230" fill="#a2a9b1">. </tspan><tspan fill="#953800">Languages.Real</tspan>:<tspan fill="#a2a9b1"> .......................... </tspan><tspan fill="#0a3069">Français, English</tspan>
<tspan x="449" y="270" fill="#a2a9b1">. </tspan><tspan fill="#953800">Stack</tspan>:<tspan fill="#a2a9b1"> ............ </tspan><tspan fill="#0a3069">React, Next.js, Node, Postgres, Supabase</tspan>
<tspan x="449" y="290" fill="#a2a9b1">. </tspan><tspan fill="#953800">Infra</tspan>:<tspan fill="#a2a9b1"> ........................ </tspan><tspan fill="#0a3069">Docker, Redis, gRPC, Coolify</tspan>
<tspan x="449" y="330" fill="#953800">- GitHub Stats</tspan><tspan fill="#a2a9b1"> ———————————————————————————————————————————————</tspan>
<tspan x="449" y="350" fill="#a2a9b1">. </tspan><tspan fill="#953800">Repos</tspan>:<tspan fill="#a2a9b1"> ................................ </tspan><tspan fill="#0a3069">19 {Contributed: 17}</tspan>
<tspan x="449" y="370" fill="#a2a9b1">. </tspan><tspan fill="#953800">Stars</tspan>:<tspan fill="#a2a9b1"> ................................................... </tspan><tspan fill="#0a3069">0</tspan>
<tspan x="449" y="390" fill="#a2a9b1">. </tspan><tspan fill="#953800">Commits</tspan>:<tspan fill="#a2a9b1"> ............................................. </tspan><tspan fill="#0a3069">7 258</tspan>
<tspan x="449" y="410" fill="#a2a9b1">. </tspan><tspan fill="#953800">Followers</tspan>:<tspan fill="#a2a9b1"> .............................................. </tspan><tspan fill="#0a3069">13</tspan>
</text></svg>